<svg xmlns="http://www.w3.org/2000/svg" width="48" height="48" viewBox="0 0 48 48">
    <defs>
        <linearGradient id="qgpdzfoifa" x1="0%" x2="101.58%" y1="0%" y2="100.584%">
            <stop offset="0%" stop-color="#58009D"/>
            <stop offset="99.954%" stop-color="#C24747"/>
        </linearGradient>
    </defs>
    <g fill="none" fill-rule="evenodd">
        <g>
            <g>
                <path fill="url(#qgpdzfoifa)" d="M16 0h16c8.837 0 16 7.163 16 16v16c0 8.837-7.163 16-16 16H16C7.163 48 0 40.837 0 32V16C0 7.163 7.163 0 16 0z" transform="translate(-86.000000, -217.000000) translate(86.000000, 217.000000)"/>
                <path fill="#FFF" d="M34 10c2.761 0 5 2.239 5 5v4c0 2.761-2.239 5-5 5l-3.342.001c-.716 2.026-2.49 3.552-4.657 3.916v-2.043c1.146-.296 2.094-1.087 2.6-2.131l.093-.207.082-.212c.03-.089.059-.18.084-.27l.059-.248.024-.13.03-.216c.018-.151.027-.304.027-.46h5c1.598 0 2.904-1.249 2.995-2.824L37 19v-4c0-1.598-1.249-2.904-2.824-2.995L34 12H24c-1.598 0-2.904 1.249-2.995 2.824L21 15v2.342c-.625-.222-1.298-.342-2-.342v-2c0-2.761 2.239-5 5-5h10zm-9.083 12H27c0 1.054-.816 1.918-1.85 1.995L25 24h-.083c.055-.325.083-.659.083-1 0-.34-.028-.675-.083-1z" transform="translate(-86.000000, -217.000000) translate(86.000000, 217.000000)"/>
                <path fill="#FFF" d="M19 26c1.657 0 3-1.343 3-3s-1.343-3-3-3-3 1.343-3 3 1.343 3 3 3zm0 2c-2.761 0-5-2.239-5-5s2.239-5 5-5 5 2.239 5 5-2.239 5-5 5zm-8 9.429c0 .552-.448 1-1 1s-1-.448-1-1C9 32.504 12.506 30 19 30s10 2.504 10 7.429c0 .552-.448 1-1 1s-1-.448-1-1C27 33.78 24.506 32 19 32s-8 1.781-8 5.429z" transform="translate(-86.000000, -217.000000) translate(86.000000, 217.000000)"/>
            </g>
        </g>
    </g>
</svg>
